<svg width="122" height="28" viewBox="0 0 122 28" fill="none" xmlns="http://www.w3.org/2000/svg">
<path d="M19.7808 18.7614H7.81692C8.01265 19.8037 8.48973 20.6565 9.24818 21.3198C10.0311 21.9594 11.1321 22.2792 12.5511 22.2792C13.5787 22.2792 14.5451 22.0897 15.4503 21.7107C16.3556 21.308 17.0773 20.7513 17.6156 20.0406C19.2548 20.8223 21.4323 21.6633 24.148 22.5634C23.3896 24.2217 22.0072 25.5482 20.001 26.5431C18.0193 27.5144 15.4259 28 12.2208 28C8.06157 28 4.97885 27.0761 2.97263 25.2284C0.990877 23.357 0 20.9052 0 17.8731C0 14.912 0.990877 12.5076 2.97263 10.6599C4.95439 8.81218 8.0371 7.88833 12.2208 7.88833C14.7163 7.88833 16.8816 8.29103 18.7166 9.09645C20.5515 9.90186 21.9583 11.0271 22.937 12.4721C23.9156 13.8934 24.4049 15.5279 24.4049 17.3756C24.4049 17.9915 24.3805 18.4535 24.3315 18.7614H19.7808ZM12.7346 13.2538C11.5113 13.2538 10.5082 13.4788 9.72527 13.9289C8.94235 14.379 8.39187 14.9949 8.07381 15.7766H16.7348C16.4412 15.0186 15.9641 14.4146 15.3035 13.9645C14.643 13.4907 13.7867 13.2538 12.7346 13.2538Z" fill="#D1D1D1"/>
<path d="M50.9608 0C50.814 4.40609 50.7406 9.01354 50.7406 13.8223C50.7406 18.5838 50.814 23.1912 50.9608 27.6447H42.6668L42.7769 23.3807C42.0673 24.9679 41.0398 26.1404 39.6941 26.8985C38.3485 27.6328 36.7582 28 34.9233 28C33.333 28 31.9017 27.5618 30.6294 26.6853C29.3572 25.8088 28.3663 24.6244 27.6568 23.132C26.9473 21.6159 26.5925 19.9577 26.5925 18.1574C26.5925 16.3807 26.9473 14.7107 27.6568 13.1472C28.3663 11.5601 29.3572 10.2927 30.6294 9.34518C31.9261 8.37394 33.3941 7.88833 35.0333 7.88833C36.9417 7.88833 38.5687 8.27919 39.9143 9.06091C41.2844 9.81895 42.2998 11.0034 42.9604 12.6142C42.9604 11.264 42.9114 9.09645 42.8136 6.11168C42.7157 3.22166 42.6668 1.18443 42.6668 0H50.9608ZM38.7767 22.0305C39.9755 22.0305 40.9541 21.7107 41.7126 21.0711C42.471 20.4078 42.8503 19.3655 42.8503 17.9442C42.8503 16.6887 42.471 15.7648 41.7126 15.1726C40.9541 14.5804 40 14.2843 38.8501 14.2843C37.7491 14.2843 36.8194 14.6278 36.0609 15.3147C35.3269 15.978 34.9599 16.8545 34.9599 17.9442C34.9599 19.1523 35.3025 20.1354 35.9875 20.8934C36.6726 21.6514 37.6023 22.0305 38.7767 22.0305Z" fill="#D1D1D1"/>
<path d="M76.4805 8.24366C76.3092 11.2284 76.2236 14.4501 76.2236 17.9086C76.2236 21.3909 76.3092 24.6362 76.4805 27.6447C74.9146 27.5736 73.6791 27.5381 72.7738 27.5381C71.9175 27.5381 70.682 27.5736 69.0672 27.6447L68.003 22.4213C67.4402 24.3164 66.5594 25.7259 65.3606 26.6497C64.1618 27.5499 62.7672 28 61.1769 28C59.7089 28 58.4367 27.6921 57.3602 27.0761C56.2837 26.4366 55.4641 25.5838 54.9014 24.5178C54.3631 23.4518 54.094 22.2555 54.094 20.9289V15.8122C54.094 12.6616 54.0328 10.1388 53.9105 8.24366H62.1678C62.021 11.7259 61.9476 15.1726 61.9476 18.5838C61.9476 19.6261 62.2045 20.4552 62.7183 21.0711C63.2565 21.687 63.9293 21.9949 64.7367 21.9949C65.4952 21.9949 66.1558 21.6751 66.7185 21.0355C67.3057 20.3723 67.6604 19.4721 67.7828 18.335V17.5178C67.8317 15.6701 67.8561 14.3909 67.8561 13.6802C67.8561 12.0457 67.8072 10.2335 67.7094 8.24366H76.4805Z" fill="#D1D1D1"/>
<path d="M86.8778 17.9442C86.9267 19.1523 87.3182 20.1235 88.0521 20.8579C88.8106 21.5922 89.9238 21.9594 91.3918 21.9594C92.1992 21.9594 92.9209 21.8173 93.557 21.533C94.1931 21.225 94.7803 20.775 95.3186 20.1827C97.3982 20.9645 99.8326 21.6396 102.622 22.2081C101.814 24.0321 100.444 25.4535 98.5114 26.4721C96.6031 27.4907 94.1197 28 91.0615 28C86.9756 28 83.9541 27.0761 81.9968 25.2284C80.0395 23.3807 79.0609 20.9526 79.0609 17.9442C79.0609 14.9357 80.0395 12.5076 81.9968 10.6599C83.9541 8.81218 86.9756 7.88833 91.0615 7.88833C94.1197 7.88833 96.6031 8.39763 98.5114 9.41624C100.444 10.4349 101.814 11.8562 102.622 13.6802C100.444 14.1303 98.0098 14.8054 95.3186 15.7056C94.7803 15.1134 94.1931 14.6751 93.557 14.3909C92.9209 14.0829 92.1992 13.9289 91.3918 13.9289C89.9238 13.9289 88.8106 14.2961 88.0521 15.0305C87.3182 15.7648 86.9267 16.736 86.8778 17.9442Z" fill="#D1D1D1"/>
<path d="M122 14.6041C119.749 14.4619 117.694 14.3553 115.835 14.2843L115.798 18.0508C115.798 19.3299 116.079 20.3367 116.642 21.0711C117.229 21.7817 118.257 22.1371 119.725 22.1371C120.287 22.1371 120.826 22.0897 121.339 21.9949C121.242 22.8714 121.193 23.7597 121.193 24.6599C121.193 25.0863 121.217 26.0575 121.266 27.5736C120.19 27.7631 119.284 27.8816 118.55 27.9289C117.816 27.9763 116.862 28 115.688 28C112.825 28 110.795 27.3367 109.596 26.0102C108.421 24.6599 107.834 22.7885 107.834 20.3959L107.871 14.3909C106.721 14.4382 105.522 14.5093 104.274 14.6041V8.31472C105.547 8.31472 106.623 7.92386 107.504 7.14213C108.385 6.36041 108.911 5.42471 109.082 4.33503H119.064C117.816 5.99324 116.434 7.3198 114.917 8.31472H122V14.6041Z" fill="#D1D1D1"/>
</svg>
